<svg width="112" height="114" viewBox="0 0 112 114" fill="none" xmlns="http://www.w3.org/2000/svg">
<path d="M55 -1.30186e-06C83.3037 -1.30186e-06 106.651 21.0628 110 48.2581H83.1562C80.0998 35.637 68.6534 26.2581 55 26.2581C41.3466 26.2581 29.9002 35.637 26.8438 48.2581H0C3.34888 21.0628 26.6963 -1.30186e-06 55 -1.30186e-06Z" fill="url(#paint0_linear_1_3)"/>
<path d="M85.1562 65.1595H112C108.651 92.3547 85.3037 113.418 57 113.418C28.6963 113.418 5.34888 92.3547 2 65.1595H28.8438C31.9002 77.7805 43.3466 87.1595 57 87.1595C70.6534 87.1595 82.0998 77.7805 85.1562 65.1595Z" fill="url(#paint1_linear_1_3)"/>
<path d="M57 76.5143C67.0695 76.5143 75.2324 68.4121 75.2324 58.4175C75.2324 48.423 67.0695 40.3208 57 40.3208C46.9305 40.3208 38.7676 48.423 38.7676 58.4175C38.7676 68.4121 46.9305 76.5143 57 76.5143Z" fill="url(#paint2_linear_1_3)"/>
<defs>
<linearGradient id="paint0_linear_1_3" x1="0" y1="0" x2="113.409" y2="111.991" gradientUnits="userSpaceOnUse">
<stop stop-color="white" stop-opacity="0.1"/>
<stop offset="1" stop-color="white" stop-opacity="0"/>
</linearGradient>
<linearGradient id="paint1_linear_1_3" x1="0" y1="0" x2="113.409" y2="111.991" gradientUnits="userSpaceOnUse">
<stop stop-color="white" stop-opacity="0.1"/>
<stop offset="1" stop-color="white" stop-opacity="0"/>
</linearGradient>
<linearGradient id="paint2_linear_1_3" x1="0" y1="0" x2="113.409" y2="111.991" gradientUnits="userSpaceOnUse">
<stop stop-color="white" stop-opacity="0.1"/>
<stop offset="1" stop-color="white" stop-opacity="0"/>
</linearGradient>
</defs>
</svg>
